<svg xmlns="http://www.w3.org/2000/svg" xmlns:xlink="http://www.w3.org/1999/xlink" viewBox="0 0 600 600" width="600" height="600" style="width: 100%; height: 100%; transform: translate3d(0px, 0px, 0px); content-visibility: visible;" preserveAspectRatio="xMidYMid meet"><defs><clipPath id="__lottie_element_2"><rect width="600" height="600" x="0" y="0"></rect></clipPath></defs><g clip-path="url(#__lottie_element_2)"><g style="display: block;" transform="matrix(0.7878473401069641,0.6158705949783325,-0.6158705949783325,0.7878473401069641,444.9920654296875,325.8714904785156)" opacity="1"><g opacity="1" transform="matrix(1,0,0,1,0,0)"><g opacity="1" transform="matrix(1,0,0,1,0,0)"><path fill="rgb(129,30,227)" fill-opacity="0.19565217971801757" d=" M-44.43905258178711,-10.038710594177246 C-48.428245544433594,-16.773155212402344 -41.89350509643555,-11.05460262298584 -30.376298904418945,2.008899450302124 C-19.19400978088379,14.691815376281738 -6.49845552444458,30.69317626953125 -1.4699238538742065,38.48051834106445 C3.8697192668914795,46.74928665161133 -1.1626099348068237,43.042903900146484 -13.370792388916016,29.32897186279297 C-25.988544464111328,15.154126167297363 -40.18830108642578,-2.862968921661377 -44.43905258178711,-10.038710594177246z"></path></g><g opacity="1" transform="matrix(1,0,0,1,0,0)"><path fill="rgb(117,30,212)" fill-opacity="0.19565217971801757" d=" M-40.0894660949707,-11.458740234375 C-44.65675735473633,-21.656116485595703 -40.585567474365234,-18.000865936279297 -31.551027297973633,-4.300313949584961 C-22.857492446899414,8.882231712341309 -12.085406303405762,27.560523986816406 -6.958786964416504,38.3678092956543 C-1.546888828277588,49.7760124206543 -4.134878635406494,48.774688720703125 -13.360621452331543,35.03285598754883 C-22.987775802612305,20.6921329498291 -35.24818420410156,-0.6499831080436707 -40.0894660949707,-11.458740234375z"></path></g><g opacity="1" transform="matrix(1,0,0,1,0,0)"><path fill="rgb(105,29,196)" fill-opacity="0.19565217971801757" d=" M-36.02709197998047,-11.941496849060059 C-41.12138366699219,-25.914100646972656 -39.85219955444336,-24.657175064086914 -33.68956756591797,-10.38365364074707 C-27.806243896484375,3.241715908050537 -19.19880485534668,24.71871566772461 -14.014674186706543,38.709896087646484 C-8.579729080200195,53.37739944458008 -8.585648536682129,55.27685546875 -14.53167724609375,41.700843811035156 C-20.787017822265625,27.417247772216797 -30.663190841674805,2.770153284072876 -36.02709197998047,-11.941496849060059z"></path></g><g opacity="1" transform="matrix(1,0,0,1,0,0)"><path fill="rgb(94,28,180)" fill-opacity="0.19565217971801757" d=" M-31.677011489868164,-11.336442947387695 C-37.22268295288086,-29.698049545288086 -39.424503326416016,-31.488037109375 -36.93133544921875,-16.771820068359375 C-34.56527328491211,-2.80849027633667 -28.668466567993164,21.816471099853516 -23.47238540649414,39.47797775268555 C-18.06487464904785,57.85742950439453 -15.060691833496094,63.13969039916992 -17.062183380126953,49.94499206542969 C-19.179855346679688,35.981285095214844 -25.88182830810547,7.850656032562256 -31.677011489868164,-11.336442947387695z"></path></g><g opacity="1" transform="matrix(1,0,0,1,0,0)"><path fill="rgb(86,26,172)" fill-opacity="0.19565217971801757" d=" M-26.289207458496094,-9.304126739501953 C-32.14473342895508,-32.93416976928711 -38.870689392089844,-38.79307174682617 -41.36436462402344,-23.930526733398438 C-43.72219467163086,-9.876336097717285 -41.5064697265625,18.38796043395996 -36.38245391845703,40.50929641723633 C-31.088815689086914,63.361961364746094 -24.294301986694336,72.83937072753906 -21.20953369140625,60.34593200683594 C-17.935501098632812,47.08652877807617 -20.218183517456055,15.194628715515137 -26.289207458496094,-9.304126739501953z"></path></g><g opacity="1" transform="matrix(1,0,0,1,0,0)"><path fill="rgb(90,21,183)" fill-opacity="0.19565217971801757" d=" M-19.05327606201172,-5.389705657958984 C-24.97847557067871,-35.368289947509766 -37.66291427612305,-46.70162582397461 -47.03260040283203,-32.23050308227539 C-55.89118194580078,-18.54926109313965 -58.838233947753906,13.908478736877441 -53.93157958984375,41.55424880981445 C-48.897300720214844,69.91780090332031 -37.13602066040039,84.74189758300781 -27.283220291137695,73.41734313964844 C-16.832704544067383,61.4051399230957 -12.956852912902832,25.453887939453125 -19.05327606201172,-5.389705657958984z"></path></g><g opacity="1" transform="matrix(1,0,0,1,0,0)"><path fill="rgb(94,17,194)" fill-opacity="0.19565217971801757" d=" M-9.308868408203125,0.8099668622016907 C-14.964346885681152,-36.70526885986328 -35.324275970458984,-55.2189826965332 -53.95773696899414,-41.922691345214844 C-71.63394165039062,-29.31056785583496 -81.73902893066406,7.906197547912598 -77.25578308105469,42.37446594238281 C-72.68437957763672,77.51889038085938 -54.38191604614258,99.12726593017578 -35.57038116455078,89.55641174316406 C-15.70071029663086,79.44612121582031 -3.530700445175171,39.13731002807617 -9.308868408203125,0.8099668622016907z"></path></g><g opacity="1" transform="matrix(1,0,0,1,0,0)"><path fill="rgb(98,13,205)" fill-opacity="0.19565217971801757" d=" M3.1455307006835938,9.38592529296875 C-1.8558142185211182,-36.833377838134766 -31.656444549560547,-64.31027221679688 -62.16257858276367,-53.102664947509766 C-91.30069732666016,-42.399070739746094 -110.91211700439453,0.1467275321483612 -107.07940673828125,42.890106201171875 C-103.19236755371094,86.2374496459961 -76.4664535522461,116.19120788574219 -46.197593688964844,108.93831634521484 C-14.46848201751709,101.33423614501953 8.224065780639648,56.31636047363281 3.1455307006835938,9.38592529296875z"></path></g><g opacity="1" transform="matrix(1,0,0,1,0,0)"><path fill="rgb(102,8,216)" fill-opacity="0.19565217971801757" d=" M17.677400588989258,19.802900314331055 C13.639080047607422,-36.08203125 -27.02008819580078,-73.98436737060547 -71.67704010009766,-65.6407699584961 C-114.76241302490234,-57.59233856201172 -146.15863037109375,-9.10023307800293 -143.1299285888672,43.36776351928711 C-140.07240295410156,96.33306121826172 -102.99071502685547,135.98406982421875 -58.92401885986328,131.3246307373047 C-13.220584869384766,126.49093627929688 21.756820678710938,76.25383758544922 17.677400588989258,19.802900314331055z"></path></g><g opacity="1" transform="matrix(1,0,0,1,0,0)"><path fill="rgb(106,4,227)" fill-opacity="0.19565217971801757" d=" M32.505008697509766,30.649616241455078 C29.490089416503906,-35.41254806518555 -22.578712463378906,-84.34156036376953 -82.5234375,-79.0918960571289 C-141.09365844726562,-73.96392059326172 -185.744140625,-18.77311134338379 -183.44590759277344,44.60074996948242 C-181.1349334716797,108.32411193847656 -132.1998291015625,158.2913055419922 -72.92671203613281,155.83505249023438 C-12.247925758361816,153.31979370117188 35.53741455078125,97.09217071533203 32.505008697509766,30.649616241455078z"></path></g><g opacity="1" transform="matrix(1,0,0,1,0,0)"><path fill="rgb(109,0,237)" fill-opacity="0.19565217971801757" d=" M44.72494888305664,39.69182205200195 C42.375579833984375,-36.38249206542969 -20.321298599243164,-95.57134246826172 -94.71597290039062,-92.67346954345703 C-168.45579528808594,-89.80181121826172 -226.104736328125,-26.90665626525879 -224.05990600585938,47.964725494384766 C-222.010986328125,122.98521423339844 -160.80238342285156,182.5664825439453 -86.76042938232422,180.89462280273438 C-12.0581693649292,179.2078857421875 47.079132080078125,115.92041778564453 44.72494888305664,39.69182205200195z"></path></g><g opacity="1" transform="matrix(1,0,0,1,0,0)"><path fill="rgb(65,0,244)" fill-opacity="0.19565217971801757" d=" M50.94851303100586,44.43092346191406 C48.41355895996094,-40.74859619140625 -22.670433044433594,-107.88623046875 -108.29907989501953,-105.40342712402344 C-194.4635467529297,-102.90477752685547 -262.45147705078125,-30.948715209960938 -259.66796875,55.190086364746094 C-256.8885192871094,141.207275390625 -184.5960693359375,208.02757263183594 -98.68150329589844,204.5678253173828 C-13.299464225769043,201.13064575195312 53.479896545410156,129.49191284179688 50.94851303100586,44.43092346191406z"></path></g><g opacity="1" transform="matrix(1,0,0,1,0,0)"><path fill="rgb(31,9,249)" fill-opacity="0.19565217971801757" d=" M48.347415924072266,42.97875213623047 C44.365142822265625,-49.80387496948242 -31.75112533569336,-121.3465805053711 -123.3531265258789,-116.31067657470703 C-216.89842224121094,-111.16646575927734 -290.1439514160156,-28.481237411499023 -285.1618347167969,67.82787322998047 C-280.205078125,163.65113830566406 -199.75511169433594,233.7968292236328 -107.22531127929688,225.1082305908203 C-16.600263595581055,216.60073852539062 52.31019592285156,135.31109619140625 48.347415924072266,42.97875213623047z"></path></g><g opacity="1" transform="matrix(1,0,0,1,0,0)"><path fill="rgb(31,58,248)" fill-opacity="0.19565217971801757" d=" M35.45600128173828,34.70494079589844 C28.565229415893555,-63.80556106567383 -48.7274055480957,-135.59100341796875 -139.8803253173828,-124.51181030273438 C-234.224853515625,-113.04216766357422 -305.904052734375,-17.943370819091797 -297.02191162109375,86.63993072509766 C-288.22222900390625,190.25733947753906 -203.95196533203125,258.8489990234375 -111.64393615722656,241.26583862304688 C-22.408531188964844,224.27110290527344 42.28662872314453,132.3603973388672 35.45600128173828,34.70494079589844z"></path></g><g opacity="1" transform="matrix(1,0,0,1,0,0)"><path fill="rgb(32,107,249)" fill-opacity="0.19565217971801757" d=" M12.34631633758545,20.349023818969727 C1.1347594261169434,-81.77645111083984 -73.53395080566406,-149.61695861816406 -157.62936401367188,-129.12557983398438 C-245.6500244140625,-107.67447662353516 -308.2652282714844,0.9924924969673157 -293.8827209472656,111.21198272705078 C-279.7057189941406,219.86239624023438 -196.7584991455078,281.81414794921875 -111.99012756347656,252.2227783203125 C-30.910602569580078,223.922607421875 23.41019058227539,121.13426208496094 12.34631633758545,20.349023818969727z"></path></g><g opacity="1" transform="matrix(1,0,0,1,0,0)"><path fill="rgb(33,157,249)" fill-opacity="0.19565217971801757" d=" M-19.658660888671875,1.7344938516616821 C-36.34175491333008,-101.66682434082031 -104.98150634765625,-161.7466583251953 -175.98843383789062,-129.17803955078125 C-250.9285888671875,-94.802001953125 -297.4345397949219,27.412824630737305 -276.4139404296875,139.91571044921875 C-255.81826782226562,250.15003967285156 -179.45150756835938,300.8945617675781 -108.95556640625,257.4063720703125 C-42.034969329833984,216.12686157226562 -3.2822391986846924,103.24005126953125 -19.658660888671875,1.7344938516616821z"></path></g><g opacity="1" transform="matrix(1,0,0,1,0,0)"><path fill="rgb(31,174,241)" fill-opacity="0.19565217971801757" d=" M-58.41307830810547,-18.654462814331055 C-81.30461120605469,-120.70634460449219 -141.04330444335938,-169.78489685058594 -193.9970245361328,-123.60980987548828 C-250.15968322753906,-74.63420867919922 -274.9354248046875,59.39189147949219 -246.8896484375,170.1768341064453 C-219.6016845703125,277.9736022949219 -154.5373992919922,314.0242919921875 -103.62934875488281,256.38909912109375 C-55.50043487548828,201.90203857421875 -36.07975387573242,80.91365051269531 -58.41307830810547,-18.654462814331055z"></path></g><g opacity="1" transform="matrix(1,0,0,1,0,0)"><path fill="rgb(37,141,227)" fill-opacity="0.19565217971801757" d=" M-101.33468627929688,-38.08236312866211 C-130.66018676757812,-135.80975341796875 -179.17633056640625,-171.30398559570312 -210.45179748535156,-111.3948974609375 C-243.66806030273438,-47.76913833618164 -243.21009826660156,94.34918975830078 -208.6484832763672,198.94313049316406 C-175.27847290039062,299.935791015625 -125.19342803955078,319.2134704589844 -97.26428985595703,248.90707397460938 C-70.87484741210938,182.4744110107422 -72.92056274414062,56.612327575683594 -101.33468627929688,-38.08236312866211z"></path></g><g opacity="1" transform="matrix(1,0,0,1,0,0)"><path fill="rgb(44,108,213)" fill-opacity="0.19565217971801757" d=" M-145.7039337158203,-53.9136962890625 C-181.1226348876953,-143.97543334960938 -216.6180877685547,-163.9936065673828 -224.06320190429688,-91.73091888427734 C-231.95565795898438,-15.151900291442871 -205.21876525878906,129.46270751953125 -165.5171356201172,223.22714233398438 C-127.49088287353516,313.0390930175781 -94.7171630859375,314.93780517578125 -91.07604217529297,234.93869018554688 C-87.62837982177734,159.13534545898438 -111.63910675048828,32.70964813232422 -145.7039337158203,-53.9136962890625z"></path></g><g opacity="1" transform="matrix(1,0,0,1,0,0)"><path fill="rgb(56,86,210)" fill-opacity="0.19565217971801757" d=" M-188.8878631591797,-63.90691375732422 C-229.47598266601562,-142.66424560546875 -250.652587890625,-146.03639221191406 -233.6303253173828,-64.25566101074219 C-215.690673828125,21.951757431030273 -164.0536651611328,162.07333374023438 -121.26038360595703,240.60134887695312 C-80.59327697753906,315.2312927246094 -66.05654907226562,300.44873046875 -86.08699035644531,214.78570556640625 C-105.17684173583984,133.15989685058594 -150.1448516845703,11.27377986907959 -188.8878631591797,-63.90691375732422z"></path></g></g></g></g></svg>
